<svg id="Layer_1" data-name="Layer 1" xmlns="http://www.w3.org/2000/svg" viewBox="0 0 518 396"><defs><style>.cls-1{fill:#fefefe;}.cls-2{fill:#142a86;}.cls-3{fill:#130d6c;}.cls-4{fill:#120c6a;}.cls-5{fill:#141c77;}.cls-6{fill:#14247e;}.cls-7{fill:#141974;}.cls-8{fill:#141471;}.cls-9{fill:#05044e;}.cls-10{fill:#04042d;}.cls-11{fill:#04042b;}.cls-12{fill:#020d5b;}.cls-13{fill:#080c47;}.cls-14{fill:#060436;}.cls-15{fill:#030841;}.cls-16{fill:#f1f5fd;}.cls-17{fill:#e0e7fa;}.cls-18{fill:#131b76;}.cls-19{fill:#7b4319;}.cls-20{fill:#cfddf5;}.cls-21{fill:#353d87;}.cls-22{fill:#02114b;}.cls-23{fill:#010b61;}.cls-24{fill:#bdd5fa;}.cls-25{fill:#abc4ea;}.cls-26{fill:#18146a;}.cls-27{fill:#0a093a;}.cls-28{fill:#080532;}.cls-29{fill:#feb840;}.cls-30{fill:#fea92e;}.cls-31{fill:#a8b5e8;}.cls-32{fill:#153887;}.cls-33{fill:#c06f0b;}.cls-34{fill:#04074a;}.cls-35{fill:#fec752;}.cls-36{fill:#fec4d0;}.cls-37{fill:#fec4cf;}.cls-38{fill:#e9a2af;}.cls-39{fill:#d8748b;}.cls-40{fill:#fdfaf6;}.cls-41{fill:#d37085;}.cls-42{fill:#6a321d;}.cls-43{fill:#153888;}.cls-44{fill:#feb63d;}.cls-45{fill:#c3d6f0;}.cls-46{fill:#c4d6f1;}.cls-47{fill:#c4d6f0;}.cls-48{fill:#c4d5f1;}.cls-49{fill:#d1ddf6;}.cls-50{fill:#c4d6f2;}.cls-51{fill:#c1d1f0;}.cls-52{fill:#c3d7f2;}.cls-53{fill:#c4d7f1;}.cls-54{fill:#c2d4f1;}.cls-55{fill:#c5d4ee;}.cls-56{fill:#00105e;}.cls-57{fill:#0a1d52;}.cls-58{fill:#d0dffa;}.cls-59{fill:#d66f86;}.cls-60{fill:#693422;}.cls-61{fill:#c6dafa;}.cls-62{fill:#fdaf37;}.cls-63{fill:#d98c1b;}.cls-64{fill:#e09730;}.cls-65{fill:#f8adb8;}.cls-66{fill:#c4cef2;}.cls-67{fill:#fea326;}.cls-68{fill:#fec3d0;}.cls-69{fill:#be7114;}.cls-70{fill:#d17f13;}.cls-71{fill:#e9a538;}.cls-72{fill:#df9a56;}.cls-73{fill:#e5a46c;}.cls-74{fill:#df8da0;}.cls-75{fill:#d7686e;}.cls-76{fill:#2f215e;}.cls-77{fill:#13013b;}.cls-78{fill:#b34965;}.cls-79{fill:#b24a61;}.cls-80{fill:#edf7fe;}.cls-81{fill:#031762;}.cls-82{fill:#000e5c;}.cls-83{fill:#f9aeb5;}.cls-84{fill:#5670ba;}</style></defs><path class="cls-1" d="M259,395.9q-127.45,0-254.91.1C.67,396,0,395.33,0,391.91Q.17,198,0,4.09C0,.67.67,0,4.09,0Q259,.17,513.91,0c3.42,0,4.09.67,4.09,4.09q-.16,193.91,0,387.82c0,3.42-.67,4.09-4.09,4.09Q386.46,395.82,259,395.9Z"/><path class="cls-2" d="M70,129.22c-9.37-26.85-6.32-52.41,9.43-75.89,19-28.3,46-44.19,79.71-49a167.55,167.55,0,0,0,23-.17c16.95,2,31.51,9.08,44.85,19.7,19.81,15.76,42.38,24.15,68,21.1,16.61-2,31.66-8.65,45.08-18.58,9.73-7.2,19.29-14.51,31.33-17.52,19.39-4.83,37.83-2.25,55.38,7.14q42.67,22.83,57,69c-1.17,3.86-3.08,2.71-4.88.61-1.36-1.57-1.18-3.77-1.88-5.63-1.59-4.21-3.45-4.91-6.36-1.62-4.69,5.31-10.85,3.94-16.65,4.43-.65,0-1.19-.52-1.62-1.06-1.67-3.65-.08-7.67-1.32-11.37-.71-2.56-.1-5.28-.92-7.83a9.64,9.64,0,0,0-6.5-7.78,14,14,0,0,0-4.47-.34q-90.15,0-180.29,0a15.91,15.91,0,0,0-2,.12c-2.78,1.18-4.54,3.52-6.47,5.67a7.76,7.76,0,0,0-.93,1.06c-.43,3.64,0,7.28-.13,10.91-.1,3.45-1.66,5.11-5.16,5.2-3.79.1-7.58-.29-11.35.12-2,2.08-4.56,3.57-6,6.18-2,8-1.25,16-1,24,.2,7.61-.63,15.2-.69,22.81a2.27,2.27,0,0,1-1.51,2.37c-1,.22-1.72-.74-2.39-1.52-4.2-4.88-6.27-5.28-11.68-1.72-3.87,2.53-8.43,1.13-12.5,2.65-1.53.57-2.05-1.74-2.27-3.24-.29-1.94.27-4-1-5.78a16.33,16.33,0,0,0-5.17-4.66,9.68,9.68,0,0,1-5.11-6.91c-1.06-4.37-4.48-6.61-9-6.17a54.22,54.22,0,0,0-10.29,1.92c-6.22,1.86-12.33,1.5-18.67-.11-10-2.55-19.6-2-26.68,7.11a24,24,0,0,1-10,7.11c-2,1.64-1.07,4-1.57,6.05-.77,3.08-2.38,3.7-4.24,1.25-2.21-2.93-5-3.47-8.29-3.48-3.64,0-7.3.17-10.93,0C78.68,125.11,73.9,125.58,70,129.22Z"/><path class="cls-3" d="M513.88,388.24c1.52,1.48,1.76,2.95,0,4.4-11.14-.57-22.28-.18-33.42-.23-18.3-.07-36.61,0-54.9,0a2.77,2.77,0,0,1-3.11-2.18,3.65,3.65,0,0,0,.15-2.64c.87-2.74,3.4-4.33,4.67-6.78.77-3.57.12-7.16.33-10.72.11-1.94-.17-4,1.31-5.57,3.39-1.8,7.05-.68,10.57-1,1.77-.15,3.59.17,5.31-.47,4-1.1,4.73-4.54,5.54-7.9a59.23,59.23,0,0,0,.2-8q0-92.31,0-184.64c0-2.64-.39-5.34.67-7.89a1.5,1.5,0,0,1,1.55-.87c2.65,2.89,1.4,6.42,1.61,9.71,0,31.78,0,63.57,0,94.68.62-2.75,3-3.29,6.11-2.63,3.43.72,6.65,2.18,10.09,2.83,1.91.35,3.8,1.34,5.68.43.33-.36.42-.73.15-1-1.92-1.82-4.48-3.48-2.83-6.65,1.52-2.93,4.39-2.57,7.07-2.19a56.73,56.73,0,0,0,6,.48c1.55.06,3.43.45,3.62,2.07.6,5.14,4,4.84,7.67,4.44,10.24,13.32,16.19,28.25,17.15,45.11,1.79,31.42-11.5,57.11-30.56,80.61a31,31,0,0,0-4.4,6c1,1.37,2.43.74,3.65.73C493.76,388.33,503.82,388.66,513.88,388.24Z"/><path class="cls-4" d="M86.08,392.8q-39.53,0-79,.1c-3,0-5.09-.35-3.26-4,13.18-1,26.39-.13,39.58-.47,1.85-.05,3.92.85,5.55-.82-5.52-7.37-11.51-14.44-16-22.54-5.05-9.09-9.6-18.4-10.93-28.91-.28-6.89-.91-13.77-1-20.69s1.24-13.52,2.37-20.19c1.28-7.57,6.76-11.69,14.4-11.71a62.93,62.93,0,0,0,8.45-.49c2.13-.3,4.33-.5,5.33,1.58-.84-3.51.59-7.09,1.95-10.6.44-1.13,1.21-3.19,3.17-1.24,1,2.72-.14,5.24-.76,7.78a48.51,48.51,0,0,0,.32,25.06C61,322.67,72.32,335.5,83.85,348.19c1.33,1.47,3,2.71,2.46,5.08-4.66,6.34-2.88,12.76-.24,19.2.66,3.29.3,6.63.43,9.95.08,2.08.37,4,2.82,4.67a20.59,20.59,0,0,0,6,.4q48.85,0,97.72,0c2.14,0,4.33.28,6.39-.62,3-1,3.09-3.51,3.1-6.05,0-7.6,0-15.19,0-22.78,0-2.29-.26-4.65,1-6.75a1.07,1.07,0,0,1,1.56-.24c1.62,1.81,1.24,4,1.26,6.16.06,8.12.08,16.23,0,24.35,0,3.2,1.11,4.47,4.43,5.21,6.41,1.42,12.85-.13,19.21.93a3.73,3.73,0,0,1,1.32,1.27c.41,2-.73,2.72-2.43,2.85a35.19,35.19,0,0,0-4.9.57q-66.27,0-132.52,0C89.69,392.41,87.83,392,86.08,392.8Z"/><path class="cls-5" d="M70,129.22c1.41-3.94,4-5.57,8.36-5.28,5.6.38,11.25.18,16.87.07,4.4-.09,8.24.55,9.57,5.94,3-3-1-7.91,3.48-9.87.45,6.19,1.09,12.37-1.58,18.32-2.76,6.15-.18,11.93,1.49,17.75a18.26,18.26,0,0,0,3.66,11c2.24,4.87,5,9.29,10.37,11.26a9.82,9.82,0,0,1,2.66,3.34c1.57,3.58,5.07,5.91,6.28,9.73a32.54,32.54,0,0,1,.29,5.4c0,2.72-.25,5.36-2.5,7.32a17.4,17.4,0,0,1-3.08,2.39,198.14,198.14,0,0,0-31.73,7.91c-6,2-11.16,5-13.87,11.11a11,11,0,0,1-3.1,3.84c-1.58.59-2.44,4.12-4.71,1.68s-.31-4.22,1.52-5.86c3-2.68,4.71-6,5.86-10.46-3.67,1.76-5.29,4.36-7.08,7-1.53,2.24-3.58,5-6.49,1.18,7.91-10.91,13.57-22.8,15.7-36.22A30.39,30.39,0,0,0,82,173C79.92,157.87,74.26,143.73,70,129.22Z"/><path class="cls-6" d="M452.94,164c0-3.33,0-6.66,0-10-1.62-1.78-1.39-4-1.39-6.14q0-29.86,0-59.72c0-2.11-.37-4.37,1.4-6.11l12.26-1a4.17,4.17,0,0,0,3.19-2.11c1.57-2.45,3.87-5.21,6.46-4.37,2.89.94,3.68,4.59,4.08,7.74.55,4.29,1.77,5,4.82,2.82,5.13,18.82,5.28,37.3-3.79,55.14q-6.84,13.47-13.67,26.93c-3.71-.72-.71-3.49-1.72-5.41a16.26,16.26,0,0,0-7.19,2C456,164.56,454.52,165.43,452.94,164Z"/><path class="cls-7" d="M452.94,164c3.88-.4,6.75-3.78,10.86-3.63.79,0,1.6-1.31,2.53-.19.73.87.4,1.8.13,2.79-.36,1.35-2.55,2.7-.17,4.17-2.21,6.66-4.76,13.21-6.18,20.11a44.7,44.7,0,0,0,0,17.44c3.58,14.29,12.58,24.77,23.2,34.44,5.44,5,9.73,11.18,14.54,16.83-2,4.49-5.08.94-7.56.81-2.76-.14-1.63-2.15-1-3.69.82-2-.76-2.77-1.93-2.45-3.26.88-6.22-.4-9.32-.63-1.94-.15-3.79.16-4.05,2.61-.2,2,.83,3.09,2.83,3.35,1.57.2,3.12.61,2.59,2.73s-2.06,2.57-3.87,2.23c-3.25-.62-6.51-1.24-9.68-2.15-9.18-2.66-9.17-2.72-12.95,5.28Z"/><path class="cls-8" d="M66.22,223c2.62,1.81,4.86.68,5.56-1.76,1-3.53,4.29-4.81,6.1-7.46.45-.65,1.1-1.42,2-1.05s1.2,1.54,1.14,2.54c-.27,4.28-3,7.28-5.48,10.41-.28.36-.88.46-1.26.77-1.33,1.05-3,2.34-1.35,4,1.79,1.86,1.56-2,3.13-1.48,1.44,2.33-.19,4.14-1.21,5.89a215.1,215.1,0,0,0-13.8,29c-1.9,2.91-2.19,6.7-5,9.16-3.4,3.17-2.86,7.72-4,11.67-.28,1,0,2.14-.46,3.67-.4-5.6-3.42-4.26-6.83-3.69-3.89.64-8,.29-11.95.23-2.28,0-4,.28-3.84,3.15a2.25,2.25,0,0,1-.37,1.42c-9.48,12.35-6.51,26.5-5.7,40.29.13,2.28-.61,4.23-1,6.32-1.21-3.29-1.28-6.78-1.77-10.19a90,90,0,0,0,.1-17c2.58-27.88,14.86-51.32,33.07-72C57.57,232.19,61.94,227.64,66.22,223Z"/><path class="cls-9" d="M86.08,392.8c1.71-1.57,3.81-.85,5.73-.85q66.6-.07,133.21-.05a117.84,117.84,0,0,1,15.73-1.54q87.5.12,175,.05c2.81,0,5.68-.31,8.18,1.47q42.06,0,84.13.06c1.94,0,4-.6,5.8.7-1.48.12-3,.35-4.44.35H90.05C88.73,393,87.4,392.87,86.08,392.8Z"/><path class="cls-10" d="M48.92,387.56c-1,2.05-2.86,1.29-4.39,1.3-13.58,0-27.16,0-40.74,0,1.32-2,3.32-1,5-1C22.15,387.69,35.54,387.65,48.92,387.56Z"/><path class="cls-11" d="M513.88,388.24c-10.92,1.36-21.87.53-32.81.4-.34,0-.68-.64-1-1,9.64,0,19.29.08,28.93.17C510.61,387.85,512.25,388.1,513.88,388.24Z"/><path class="cls-12" d="M182.05,4.2c-7.64,1.58-15.3,1.21-23,.17A107.46,107.46,0,0,1,182.05,4.2Z"/><path class="cls-13" d="M460.12,204.7c-.41.34-1.09.4-1.09-.1-.08-5.73,0-11.46,0-17.19,0-.11.17-.31.26-.31a5.2,5.2,0,0,1,.86.16Z"/><path class="cls-14" d="M20.33,308.94a37,37,0,0,1-.1,17A74.74,74.74,0,0,1,20.33,308.94Z"/><path class="cls-15" d="M82,173c2.17,4.51.81,9.24.8,13.88a.62.62,0,0,1-.41.12,1.51,1.51,0,0,1-.44-.22Z"/><path class="cls-16" d="M427.87,381.87a16,16,0,0,1-5.27,5.79c-1.44,1.87-3.54,1.63-5.5,1.63q-90.55.06-181.1,0a11.16,11.16,0,0,1-3.94-.46c-1.7-.95-3.61-1.52-5.09-2.86a9.28,9.28,0,0,1-2.39-6.41c-.11-19.81-.48-39.62.17-59.42.51-2.73,2.77-3.47,4.95-4.37,11.42-4.74,15.44-13,12.91-25.16q-2.73-13.2-6.11-26.24c-.07-2.06,1.2-3.4,2.66-4.5,4.36-3.29,8.61-6.71,12.89-10.11,1.73-1.38,3.58-2,5.36-.35,4,3.72,8.33,7.05,12.47,10.6,1,.83,2,1.89.75,3.35-3.11,1.74-6.5.88-9.77,1.08a32.92,32.92,0,0,0-4,.06c-2.68.47-7.35-1.57-7.46,2.35-.11,4.09,4.59,2.47,7.21,2.52,10.29.23,20.59,0,30.88.2,6.75,1,13.22,3.49,20.09,3.92,5.92.14,11.84.06,17.75,0,7-.14,13.36-3.18,20.2-3.95,17.64-.3,35.28,0,52.92-.22,2.24,0,6.07,1,6-2.46s-3.85-2.29-6.1-2.33c-9.65-.15-19.3,0-28.95-.08-2.32,0-4.69.23-6.84-.93-.95-.74-1.2-1.81-.32-2.53,5.81-4.79,10.71-10.7,17.54-14.24,6-.55,12-.15,17.94-.27a27.83,27.83,0,0,0,4.47-.2c1.36-.25,2.69-.62,2.66-2.37s-1.36-2.17-2.72-2.32c-3.64-.41-7.31,0-11-.24-2.24-.12-4.81.33-5.95-2.51a31.21,31.21,0,0,1,7.84-14.81c2.93-.81,6-.3,8.92-.53,1.54-.12,3.13-.34,3.24-2.34.14-2.3-1.55-2.61-3.31-2.77-2.12-.19-4.36.21-6.23-1.28-.94-5.43.31-10.48,2.65-15.34,1.36-1.09,3.09-1,4.66-1.35,1.2-.31,2.12-.91,2.19-2.29.05-1.08-.41-2.17-1.43-2.31-5.46-.75-4.95-5.24-5.79-8.92a17.83,17.83,0,0,1-.38-3.78c-.06-3.06,1.14-5,4.41-5.54,1.54-.23,3-.94,2.71-2.89s-1.76-2.23-3.32-2.36c-2.15-.18-4.36-.17-6-2-2.06-3.35-3.15-7.13-4.59-10.74-.54-1.35-1-2.81.27-4.08,3.28-1.64,6.82-.62,10.23-1,1.61-.2,3.59-.16,3.64-2.44s-1.88-2.44-3.53-2.57c-4.92-.41-9.89.4-14.8-.56-5.12-3.45-7.8-9-11.79-13.48a2,2,0,0,1,.21-2.71c2-1.52,4.41-1.21,6.7-1.24,6.45-.1,12.91.13,19.36-.14,1.59-.07,3.66-.09,3.64-2.42s-2.1-2.31-3.68-2.34c-8.61-.2-17.22,0-25.83-.1a92.73,92.73,0,0,1-10.41-.27c-7-2.3-12.55-7.38-19.69-9.44-4.14-1.19-8.2-2.61-12.4-3.66-1.62-.41-4.29-.3-3.53-3.42,2.38-1.66,5.11-1.26,7.74-1.27,20,0,39.92,0,59.88,0a28.6,28.6,0,0,0,5.47-.3c1.22-.23,2.3-.73,2.33-2.15s-1.05-1.92-2.29-2.14a25.72,25.72,0,0,0-4.47-.24q-70.86,0-141.72.05c-2.4,0-6.58-1.21-6.63,2.17,0,4,4.35,2.49,6.8,2.52,13.31.19,26.62.07,39.92.11,2.47,0,5-.28,7.28,1.13,1.42,2.17-.6,2.84-1.78,3.06-12,2.28-22.52,8-33.13,13.5-5.24.55-10.49.11-15.74.33-1.77.08-3.95,0-4.07,2.49s2.13,2.42,3.88,2.61c1.92.2,4-.14,5.49,1.57.88,2.62-1.14,4-2.5,5.56-12.25,14-18.85,30.4-20.32,48.9,0,3.25,0,6.5,0,9.74.54,12.1,4,23.39,9.42,34.15,2.59,5.17,2.52,6.07-2.31,9.31-3.11,2.07-5.62,5.24-9.69,5.7a2.5,2.5,0,0,1-2-1.28c-2.16-5.83-5.71-11.18-6.18-17.61-.5-30.26-.57-60.52,0-90.76.26-13.9.16-27.82.81-41.72.2-4.36-.95-8.78,1-13a14.39,14.39,0,0,1,5.71-5c3.69-1.21,7.48-.3,11.21-.55,1.95-.14,4,.25,5.83-.64a20.89,20.89,0,0,1,6.45-.5q78.91,0,157.85,0c.83,0,1.66,0,2.5,0,8.38.2,11.14,2.37,13.39,10.51.53,17.73.17,35.46.22,53.19,0,13.59.17,27.18-.09,40.77q.27,34.51,0,69c.22,36.93.07,73.86.08,110.78a10.08,10.08,0,0,1-.87,4.87C427.79,370.33,429.24,376.17,427.87,381.87Z"/><path class="cls-17" d="M445.83,54.44c2.75,1.86,5,4.1,5.28,7.64.71,3.26-.05,6.62.64,9.88-.78,4.46-.4,9-.41,13.45,0,17.32,0,34.63,0,51.94a24.86,24.86,0,0,1-.38,6c-1.38,5.67-3.38,6.35-8.74,4.08-4.23-1.79-8.51-3.07-9.27-8.47.26-17.18-1-34.34-.52-51.52.07-2.48,0-5-.15-7.45s-1-4.12-3.33-5c-3.09-1.7-6.48-1.29-9.78-1.29q-76.61,0-153.22,0c-4.33,0-8.63-.32-13-.58-2.58-.16-4.07-1.31-3.92-4,.16-3.12-.7-6.33.81-9.33.44-3.11,3.23-4,5.27-5.61,1.52-1,3.24-.53,4.86-.53q90.6,0,181.21,0C442.74,53.62,444.53,52.81,445.83,54.44Z"/><path class="cls-18" d="M226.38,82.15c-.12,2.81-.35,5.63-.35,8.45Q226,159.84,226,229.08c-2.48-.06-3.17-2.18-4.14-3.8A24.9,24.9,0,0,0,209.46,215c-10.81-4.52-22.36-5.94-33.73-8.13a39.4,39.4,0,0,0-4.87-2.84c-1.39-1.78-1.1-3.88-1.18-5.91a31.19,31.19,0,0,1,.25-5.38c2.74-4.86,7.27-8.3,10.3-12.93a9.09,9.09,0,0,1,1.6-1.43c5.09-2.39,7.73-7,10.49-11.54,2.72-3.37,2.4-7.4,2.43-11.35.85-3.85.84-7.52-1.46-11-1.62-2.48-1.62-5.33-1.08-8.22.89-4.7.5-9.63,2.59-14.11,2.32,2,.77,4.68,1.23,7,.23,1.14.11,3.67,1.86,2.09,2.34-2.12,4.47-1.39,6.85-1.18a5.14,5.14,0,0,0,3.75-1c7-5.35,11.23-4.43,14.61,3.15,1.48-.37.84-1.59.88-2.42.62-11.5.18-23,.75-34.55C225,90.74,223,86.19,226.38,82.15Z"/><path class="cls-19" d="M194.8,122.09a56.94,56.94,0,0,1-.45,7.92c-.66,6-2.54,12,2.12,17.6,1.89,2.27.05,5.43-.77,8.11-2.72.72-4.44-2.95-7.46-1.54-2.68,1.25-1.18,4.91-3.85,6-4.88-2.8-6.38-7.85-7.93-12.65-1-3-2.22-4.43-5.47-4.22a15.75,15.75,0,0,1-10.63-3.4,12.56,12.56,0,0,0-13.6-1.27c-5,2.38-10.07,4.32-15.73,3.69-2.76-.3-3.67,1.31-4.45,3.56-1.39,4-2.14,8.4-5.65,11.38-.31.12-.78.3-.92.13-4-4.81-8.25-3.72-12.54-.41-3.07-7.12-5.75-14.09-.92-21.75,1.23-2,.55-5.2.52-7.84a19,19,0,0,1,1.15-7.33c3.46-1.16,6.68-2.57,9-5.74,6.39-8.91,15.92-11.85,25.52-8.89,10.44,3.22,19.84,1,29.64-1,7.26-1.47,11.4,1.29,12.62,8.57.28,1.64.89,3.07,2.37,3.49C190.58,117.43,192.33,120.21,194.8,122.09Z"/><path class="cls-20" d="M249.86,59.75c0,.33.09.66.1,1,.38,11.3.38,11.31,11.94,11.32H410.77c4.83,0,9.66,0,14.49,0,1.86,0,3.73-.09,4.68,2,2.58,3.49,1.47,10.24-2,12-2.18-7.53-4.1-9-11.95-9L249,77a57.87,57.87,0,0,1,.12-16.88A4.84,4.84,0,0,1,249.86,59.75Z"/><path class="cls-21" d="M450.78,72.08l.33-10c1.69,2.53.42,5.39.87,8,.64,1.07.43,2.26.43,3.4q0,38.55,0,77.1c0,1.15.21,2.34-.43,3.41q0,98.57-.13,197.14c0,1.93.65,4-.78,5.78-2.45-2.45-1.74-5.61-1.74-8.52,0-33.46.31-66.92.17-100.38,0-27.67.14-55.33-.1-83,1.18-29.17,1.16-58.36,1.06-87.54C450.46,75.71,450.15,73.86,450.78,72.08Z"/><path class="cls-22" d="M445.83,54.44c-1.66-.1-3.32-.3-5-.3H255.13c-.29-2,1.27-1,1.88-1q92.46-.07,184.91,0C443.33,53.1,445,52.57,445.83,54.44Z"/><path class="cls-7" d="M452,154V70.13c2,3.84.46,8,1,11.92q0,36,0,72Z"/><path class="cls-23" d="M249.08,60.16,249,77l-16.87.1c3.21-2.39,6.9-1,10.26-.91,4.54.15,6.22-1.2,5.76-5.81-.34-3.39.06-6.85.14-10.28,0-.07.25-.18.38-.18A1.48,1.48,0,0,1,249.08,60.16Z"/><path class="cls-24" d="M450.75,248q.08,50.27.15,100.54c0,2.82.11,5.63.17,8.45-.51,3.18-1.66,5.9-5.06,7-2.58.94-5.28.1-7.88.48-4.18.62-5.74-1.35-5.76-5.27q-.14-22.89,0-45.78a8.41,8.41,0,0,1,.83-3.85c2.22-2.37,3.91-.43,5.55.81,2.49,1.88,5,5.16,8.14,3.6s1.45-5.46,1.48-8.31c.25-18.49-.23-37,.27-55.46a5.47,5.47,0,0,1,.6-1.67A1.12,1.12,0,0,1,450.75,248Z"/><path class="cls-25" d="M434,308.94c0,16.4.13,32.8-.12,49.19-.07,4.43,1,6.51,5.72,5.84a44.76,44.76,0,0,1,6.45,0c-5.58,2.14-11.42.16-17.08,1.12a.55.55,0,0,1-1-.08V249c3.1-1.91,4.68-1.34,5.8,2.32.76,2.5.52,5.21,1.39,7.71.78,15.1.25,30.2.3,45.3A6.49,6.49,0,0,1,434,308.94Z"/><path class="cls-26" d="M423.93,391.88,225,391.9c1.32-2.35,5.36.77,6-3,1.55-.93,3.26-.49,4.88-.49q91.1,0,182.19,0c1.62,0,3.33-.5,4.86.53Z"/><path class="cls-27" d="M422.94,389,231,388.93c-.31,0-.61,0-.92,0-.2-1,.06-1.59,1.24-1.17q64.17.06,128.35.12c21,0,41.94-.12,62.91-.18C423.21,388,423.82,388.28,422.94,389Z"/><path class="cls-28" d="M428,365a1.09,1.09,0,0,1,1,.08q-.1,8.39-.22,16.78c0,.07-.25.19-.38.19a1.52,1.52,0,0,1-.46-.17Q427.93,373.43,428,365Z"/><path class="cls-29" d="M56.12,273.05a40.94,40.94,0,0,1,3.89-9.2c5.12-6.65,14.51-8,21.66-3,1,.71,2.07,1.26,3.23.85,4.35-1.56,9.33-.43,13.42-3.25a5.15,5.15,0,0,1,4.83-.28,30.67,30.67,0,0,0,20.36.87c2.25-.64,4.61-.43,6.93-.46,5.31-.07,10.61.15,15.9-.63,2.8-.41,5.71-.12,7.35,2.89.37,3.29-2.1,5.49-3.18,8.21-3,7.49-5.22,15.06-3.62,23.26a4,4,0,0,1-.53,2.88,2.71,2.71,0,0,1-2.14,1.14C133.17,295.21,122,299,111,295.79c-6.23-2-6.63-3.34-3.81-11.94a9.4,9.4,0,0,1-1.35,3.27c-2,2.87-1.07,5.12,1.06,7.49,1.51,1.69,4.31,3,3,6.12a24.7,24.7,0,0,1-19.19,2.89c-3.67-.87-7.15-1.38-10.77-.09a6.83,6.83,0,0,1-4.91.16c-5.19-2.24-10.57.13-15.81-.9-3.23-.64-1.17,4-3.85,4.12-3.68-9.3-3-18.69-.56-28.12C55.29,276.89,55.68,275,56.12,273.05Z"/><path class="cls-30" d="M55.37,306.91c-.11-5.57,2.82-4.82,7.41-5.49C70,300.37,77,305,84.09,301.11c2.13-1.18,4.76.78,7.15,1.38,6.6,1.64,12.73-.47,18.85-2.54,2.87-.43,4.08,1.9,5.49,3.56,5.36,6.29,11.08,12.26,16.42,18.57,3.86,4-.31,5.88-2.21,8.36-8.82,8.63-17.49,17.4-26.19,26.16-6.1,5.9-6.22,5.93-13,.67-1.67-1.3-3.5-2.49-4.46-4.51-4-4.57-8.22-9-12.13-13.73C66,329.4,59,319.13,55.37,306.91Z"/><path class="cls-31" d="M88.11,388.05c-2.15,0-3.26-.65-3.15-3.18.19-4.32,0-8.65-.07-13-.57-1.49.11-2.73,1.49-2,7.84,4.14,12.84-1.12,18.24-5.19a12.26,12.26,0,0,1,3.35-2.14c1.87-.15,3,1.19,4.28,2.19,4.38,3.43,9.13,4.37,14.36,2.2,4.36-1.42,7.58-4.42,10.78-7.53,2.08-2,3.75-4.64,6.88-5.33a43.25,43.25,0,0,0,6.13,0,197.71,197.71,0,0,0,44.75-2.12c2.92.32,5.58-2.74,8.63-.65,0,10.95-.1,21.92.17,32.87.08,3.29-1.25,4-4,3.9a8.24,8.24,0,0,1-3.45.33h-105A7.93,7.93,0,0,1,88.11,388.05Z"/><path class="cls-32" d="M108.32,363c-3.19,2.59-6.26,5.34-9.6,7.73-3.5,2.51-7.38,2.62-11.27.74-1-.48-2-1.61-2.56.39-3.25-5.8-4.37-11.67-.71-17.77a3,3,0,0,1,1.93-1.36c3,.55,4.72,3,6.83,4.78,3.25,2.69,5.83,3.42,8.48-.52a7.92,7.92,0,0,1,2-1.51A9.42,9.42,0,0,1,108.32,363Z"/><path class="cls-33" d="M203.78,351.29c-2.7.07-4.89,2.47-7.78,1.71-.14-5.13,2.65-9.63,3.15-14.62.75-2.26.31-4.63.63-6.92.26-1.9.86-3.82,3.12-3.85,2.56,0,2.59,2.07,2.6,4,0,2.28,0,4.55,0,6.83.18-3.14-.3-6.29.34-9.41a1.47,1.47,0,0,1,2.06,1.42c.51,6.52,2,13.14-1.61,19.32a3.27,3.27,0,0,1-1.46,1Z"/><path class="cls-34" d="M88.11,388.05H200c-1.39,1.35-3.15.82-4.76.82q-51.17,0-102.35,0C91.26,388.88,89.5,389.41,88.11,388.05Z"/><path class="cls-26" d="M231.33,387.72l-1.24,1.17c-2.91-1.49-5.83.13-8.72.17-4.68.06-9.17-1.22-13.81-1.2-3.17,0-2.5-2.48-2.52-4.34-.1-10.94-.14-21.88-.21-32.82h.06c3.23.79,2.53,3.56,2.59,5.66.22,7.29.05,14.59.1,21.89,0,6.8.29,7,6.92,7.13,4.63.11,9.28-.58,13.88.37C229.37,386.4,230.35,387.06,231.33,387.72Z"/><path class="cls-35" d="M153.05,261c-2.54-1.9-5.17-2.16-8.37-1.59-3.88.7-7.94.47-11.93.5a107,107,0,0,0-13.26,1.4c-5.16.69-10.95,1.77-15.95-1.78-1.43-1-3.63-1.21-4.7-.08-4.21,4.46-10.52.92-15,4.24-.89.66-2.27-.35-3.11-1.15-4.6-4.43-9.21-4.71-14.09-1.3-1.89,1.32-4.41,1.74-6.64,2.57,3.52-10.54,8.89-20.21,14-30,.81-1.55,2.38-2.83,2-4.87,1-1.29,2.32-2.44,2.93-3.89,2.62-6.21,7.69-9.31,13.7-11.38,10.87-3.73,21.89-6.81,33.35-8.12,2.54.38,3.25,2.67,4.41,4.39a37.82,37.82,0,0,0,7.95,8.87c9.53,7.47,20.07,5.73,28.81-4.52,2.55-3,4.21-6.81,8-8.63a176.36,176.36,0,0,1,31.92,6.89c8.78,2.83,14.42,8.82,18.78,16.48a141.72,141.72,0,0,0,6.63,17.09c.71,1,0,1.56-.62,2-7.06,5.47-14.3,10.7-21.63,15.81a5.27,5.27,0,0,1-2.33.8,9.88,9.88,0,0,1-3.61-.59c-5.7-1.7-11.14-4.16-16.82-6-2.41-.76-4.4-1.25-5.61,1.82-.93,2.33-2.6,2.43-4.84,1.26-6.35-3.35-6.46-3.32-11,1.58-1.28,1.37-2.54,1.61-3.91.76-2.24-1.4-4.7-1.4-7.16-1.63A4.73,4.73,0,0,1,153.05,261Z"/><path class="cls-36" d="M181,179.89c-2.27,5-6.28,8.55-10.25,12.12-2.4,4.17-6.81,4.91-10.84,6.12-7.89,2.36-15.66,1.32-23.26-1.46-2.85-1-5.35-2.59-6.48-5.66-2.38-2.74-4.84-5.42-6.19-8.87-1.3-4.08-2.88-8-3.6-12.34-.92-5.51-.16-10.13,2.89-14.66a26.43,26.43,0,0,0,3.95-8.59c.76-3.25,2.47-5,6-4.51,4.71.64,8.86-1,12.83-3.22,5.61-3.07,10.76-2.83,15.5,1.68,2.06,2,4.6,2.49,7.33,2.6,4.35.18,7.68,1.55,8.62,6.52a15.7,15.7,0,0,0,2.93,6.3C186.38,163.85,183.69,171.83,181,179.89Z"/><path class="cls-37" d="M170.89,197.89c.66,2.05-.58,4.44,1.1,6.31-2.19,7.76-13.08,17.21-20.78,17.85-5.52.47-10-2.22-13.87-5.66a42.52,42.52,0,0,1-9.44-12.59c3.16-1.47,1.16-4.62,2.21-6.77,2-.59,3.49.72,5,1.61,9.49,5.57,19.1,5.26,28.91.91C166.17,198.6,168.15,196.58,170.89,197.89Z"/><path class="cls-38" d="M181,179.89c.56-5.08,1-10.16,1.72-15.22.21-1.56.31-2.92-.76-4.21a25.08,25.08,0,0,1-4.86-9.7c-1.29-5-4.65-6.45-9-6.61a10.92,10.92,0,0,1-8-3.44c-3.58-3.74-7.83-4.07-12.17-1.62-4.88,2.75-9.85,4.73-15.58,4-2.23-.3-3.2.71-3.62,3a14.07,14.07,0,0,1-2.34,6c-6.55,8.4-6,17.35-2.72,26.7a13,13,0,0,1,.23,3.45L121.78,179c-2.67-1.77-3-4.53-3.12-7.38-.1-3.15-1.35-6.19-1-9.38.23-1.94,0-4.12,2.4-5,3.1-3.68,4.55-8.1,5.47-12.69.49-2.44,1.14-3.77,4.12-3.32,5.64.84,10.86-.89,15.85-3.42,5.56-2.81,10.93-2.6,15.85,1.43a13.7,13.7,0,0,0,10.26,3c3.26-.28,4.86.37,5.75,4.09a26.68,26.68,0,0,0,7.6,13.76l.56.52a5.15,5.15,0,0,1,.65,2.2c.33,2.83-1,5.5-.83,8.33-.23,2.92-.43,5.86-3.17,7.75Z"/><path class="cls-39" d="M170.89,197.89c-6,2.31-11.45,5.76-18.15,6.23-8.58.6-15.91-2.12-22.63-7.09,0-2,0-4,0-6,13.3,9.83,26.85,8.89,40.58,1Z"/><path class="cls-40" d="M127.9,203.8c2.93,1.58,4.23,4.57,6.12,7,8.24,10.77,19,14.47,30,2.81,2.85-3,5.4-6.24,8-9.46,2-1.5,2.7-.12,3.26,1.51a52.07,52.07,0,0,1-8.56,10.9c-12,12-24.86,10.82-35.37-3.17-1.88-2.52-3.51-5.22-5.26-7.83A2.1,2.1,0,0,1,127.9,203.8Z"/><path class="cls-41" d="M120.08,157.21c-2.54,5,0,10-.21,15-2.61-2.06-6.66-1.1-8.77-4.19-2.81-3.13-4.61-6.6-3.63-11C112.49,150.7,116.4,150.77,120.08,157.21Z"/><path class="cls-42" d="M111.1,168c1.52.73,3.13,1.42,4.78,1.06,2.76-.6,3.3,1.28,4,3.13.63,2.26,1.27,4.53,1.91,6.79C115.6,177.86,113.26,173,111.1,168Z"/><path class="cls-43" d="M208.1,264l24.49-17.82c4.15-3,9.86-5.14,12-9.2s-3.31-8.45-4.86-13c-2.92-8.48-5.48-17-5.62-26a36.8,36.8,0,0,0,.07-10.94c1.14-19.36,8.66-36,21.56-50.33.77-.86,1.5-1.75,2.25-2.63,2.14-4.77,6.44-7,10.79-9.1A95.55,95.55,0,0,1,304,111,33.12,33.12,0,0,1,329,111a94.67,94.67,0,0,1,35.15,14c4.34,2.15,8.62,4.36,10.79,9.08L386.2,148a10.49,10.49,0,0,1,4.68,8.07q2.63,7,5.27,14c3.72,3.85,2.05,8.77,2.63,13.24l.36,3.74c.5,3.32.27,6.72,1.16,10a5.37,5.37,0,0,1-1.35,5l-3,15a10.38,10.38,0,0,1-2.94,8l-7,13.12c-1.53,3.91-3.31,7.62-7.27,9.71A132.09,132.09,0,0,1,362,262.14c-4.47,5.4-10.81,7.11-17.19,8.75-6.28,1.44-12.37,3.79-18.92,4a94.54,94.54,0,0,0-18.88,0c-6.54-.17-12.64-2.47-18.9-3.94-6.42-1.58-12.75-3.31-17.22-8.74-4.67-3.45-9.35-6.9-13.3-11.2-1.47-1.6-2.51-2.05-4.44-.42-5.3,4.5-10.82,8.74-16.25,13.09-5.64,8.19-10.15,9.75-19.15,6.52a61.86,61.86,0,0,0-7.19-1.78C208.39,267.84,206.29,266.94,208.1,264Z"/><path class="cls-44" d="M208.1,264c0,1.32-.23,2.73,1.78,2.89,1.42.12,3.1,0,4.2.73,8.92,5.78,16.11,2.31,22.86-4,4.54,11.42,7.57,23.31,7.72,35.52.11,9-6,14.62-14.2,17.88-1.5.6-3.33.47-4.4,2-6.52,2.8-13.29,1.24-20,1.1-10-3.34-20.31-5.86-30.49-8.73-.8-.19-1.58-.44-2.37-.71-5.15-1.73-5.62-2.64-4-8q.43-1.43.93-2.82c3.43-10.94,6.61-22,9.63-33,2.39-10.83,2.58-10.91,12.76-7.32,4.07,1.44,8,3.59,12.47,3.46Z"/><path class="cls-4" d="M205.2,319l20.86.05c0,19.62,0,39.24-.06,58.85a12.11,12.11,0,0,0,2.38,7.9c-6.6,2.42-13.44.78-20.16,1-2.78.1-2.17-2.43-2.18-4.12,0-8.95,0-17.89,0-26.84,0-1.76.54-3.7-1.11-5.13,3.11-7.12,2.3-14.46,1.19-21.82C204.27,325.71,202.9,322.49,205.2,319Z"/><path class="cls-45" d="M329,111A122.64,122.64,0,0,0,304,111c-1.52-1.55-3.46-.88-5.22-.89q-23.24-.07-46.47,0c-2.57,0-5.1.2-5.28-3.57-.13-3,.48-4.6,4-4.52,9.16.2,18.32.06,27.48.06q61.46,0,122.92,0c2.41,0,5.52-1.13,5.58,3.44s-2.54,4.6-5.83,4.59q-33.48-.07-67,0C332.46,110.07,330.51,109.4,329,111Z"/><path class="cls-46" d="M327,317q-37.22,0-74.42,0c-2.7,0-5.66.89-5.69-3.87,0-4.51,2.52-4.14,5.44-4.14l148.85,0c2.58,0,5.43-.64,5.8,3.54s-1.7,4.52-5.06,4.5C377,316.9,352,317,327,317Z"/><path class="cls-47" d="M327,363H252c-2.41,0-5.07.7-5.09-3.43s1.94-4.63,5.3-4.63q74.72.09,149.42,0c3.32,0,5.37.55,5.35,4.58,0,4.57-3.14,3.45-5.56,3.46Q364.21,363,327,363Z"/><path class="cls-48" d="M327,331.94q37.2,0,74.42,0c3,0,5.81,0,5.57,4.27-.14,2.39-1,3.81-3.54,3.77-.83,0-1.67,0-2.5,0q-73.92,0-147.85,0c-2.15,0-4.86,1-5.9-2.23-1.25-3.85.47-5.75,5.37-5.75Q289.74,331.92,327,331.94Z"/><path class="cls-45" d="M326.47,294q-37,0-73.93,0c-3,0-5.79,0-5.56-4.29.13-2.42,1-3.78,3.57-3.74.83,0,1.66,0,2.49,0q73.92,0,147.85,0c2.3,0,5.34-1,6,2.74.74,4.36-1.52,5.34-5.47,5.32C376.42,293.92,351.44,294,326.47,294Z"/><path class="cls-49" d="M428,86c.27-.16.77-.31.79-.5.37-3.83,2.52-7.49,1.19-11.49,3.92.84,4,4,4,7,0,10,.13,19.92,0,29.88-.14,9.38,2,18.75,0,28.13,4.55,9.15,2.63,18.74,1.83,28.23-.55,6.48-.15,13-.31,19.43-.06,2.48.24,5-.67,7.39-1.27,1.94-2.11.94-2.67-.5-.74-1.89-.4-3.92-.6-5.89-.3-3-.42-6-3.56-7.67Z"/><path class="cls-50" d="M344.85,270.89,362,262.14c1.57,1.42,3.49.79,5.25.8q17.19.09,34.38,0c2.88,0,5.31.06,5.31,4s-2.47,4-5.33,4Q373.26,270.91,344.85,270.89Z"/><path class="cls-51" d="M428,180c2.44-1.4,3.16-.34,4.12,2,1.69,4.24-.48,8.89,1.85,12.93,1.44,6,.91,12.13,1.4,18.19.56,6.95.24,14,.1,21,0,5.93.2,11.86.07,17.8-.05,2.11.16,4.34-1.58,6-1.75-1.62-.47-3.83-1.11-5.63-.78-2.16-1-5.41-4.84-3.38Q428,214.5,428,180Z"/><path class="cls-52" d="M374.94,134,364.15,125c12.81,0,25.62.07,38.42,0,2.62,0,4.51.17,4.42,3.64-.08,3.17-1.19,4.5-4.43,4.45-7.48-.12-15-.08-22.45,0C378.36,133.08,376.4,132.38,374.94,134Z"/><path class="cls-53" d="M270.93,262.13l17.22,8.74c-12.42,0-24.84,0-37.25.13-2.61,0-4.05-.56-3.94-3.55.1-2.69.64-4.54,3.84-4.49q7.69.09,15.4,0C267.8,262.92,269.54,263.47,270.93,262.13Z"/><path class="cls-53" d="M378.72,247.84l7.27-9.71c.44,2.47,2.41,1.8,3.93,1.83,4.14.06,8.28.11,12.41,0,3-.1,4.68.81,4.63,4.18,0,3.14-1.67,3.91-4.42,3.87C394.6,247.89,386.66,247.89,378.72,247.84Z"/><path class="cls-46" d="M390.88,156,386.2,148c5.29,0,10.59.08,15.88,0,2.81,0,4.86.39,4.88,3.94s-1.69,4.23-4.67,4.14C398.49,155.93,394.68,156,390.88,156Z"/><path class="cls-50" d="M268.82,125,258,134.07c-2.3-2-5.08-.95-7.61-1-3.12,0-3.45-1.62-3.45-4.09s.36-4.12,3.46-4.05C256.56,125.11,262.69,125,268.82,125Z"/><path class="cls-46" d="M393,225l2.94-8c2.17,0,4.34.12,6.49,0,3-.21,4.6.42,4.58,4s-1.48,4.24-4.52,4.07S396.17,225,393,225Z"/><path class="cls-54" d="M398.78,183.26q-1.3-6.63-2.63-13.24c1.6,1.14,3.44,1.12,5.25,1,2.84-.25,4.79.3,4.92,3.74.12,3.14-1,4.7-4.27,4.3C398.59,178.6,399.15,181.28,398.78,183.26Z"/><path class="cls-55" d="M399,202q.1-7.5.19-15c1.17,1.24.75,2.79.82,4.24s.29,2.78,2.09,2.68c3.53-.19,5.26,1.14,4.88,4.89-.43,4.16-3.56,3-6,3.19C400.28,202.05,399.61,202,399,202Z"/><path class="cls-56" d="M307.05,274.81a43.26,43.26,0,0,1,18.88,0A80,80,0,0,1,307.05,274.81Z"/><path class="cls-57" d="M234.22,187a15.44,15.44,0,0,1-.07,10.94A45.5,45.5,0,0,1,234.22,187Z"/><path class="cls-58" d="M434,234c-.43-9.56.87-19.16-1-28.69-.66-3.45.4-6.88.94-10.29-.07-15.15-.1-30.28,1.82-45.36.46-3.57-2.08-6.91-1.81-10.61,1.75,2.58,2,7,7,5.61.57-.16,1.47.67,2.13,1.15,4,2.85,5.22,2.46,6.49-2.35a19.68,19.68,0,0,0,.33-4.93c0-20.39,0-40.79,0-61.19,0-1.76-.6-3.67.82-5.24l0,93c-.68,2.1-.32,4.27-.33,6.41,0,23.71,0,47.42,0,71.13,0,1.79.46,3.65-.46,5.38v1c-2.53,1.73-4.41.24-5.25-1.77-1.51-3.61-4.16-6-7.23-8C435.48,237.93,434.73,236,434,234Z"/><path class="cls-59" d="M184.17,171.12c.27-3,.55-6.05.83-9.07.65-.87,1.33-1.71,1.92-1.71a1.68,1.68,0,0,1-1.95-.29v0c.08-2.48-1.15-5.28,2.08-6.89,3.74-1.86,6.16.33,8.64,2.54,1.15,4.58.52,8.71-3,12.12C190.47,170.57,187.18,170.48,184.17,171.12Z"/><path class="cls-60" d="M184.17,171.12c1.74-3.92,6.19-.84,8.5-3.29-2.43,4.7-4.76,9.48-10.48,11Z"/><path class="cls-61" d="M449.93,248q0-38.83,0-77.67c0-1.77-.6-3.68.8-5.25q0,41.44,0,82.91Z"/><path class="cls-61" d="M434,234a29.27,29.27,0,0,0,5.3,5c2.63,2,5.93,3.44,6.28,7.66.14,1.79,2.39,2.52,4.4,2.33q0,30.35,0,60.69c0,2.26.83,5.49-1.57,6.3s-5.49,0-7.86-2c-2.12-1.75-3.36-4.66-6.52-5.06q0-25.47,0-50.95Z"/><path class="cls-62" d="M110.05,295c.77-.29,1.7-1,2.29-.8,11.18,4,22.54-.81,33.74.8,4.17,1.42,7.82,3.46,9.46,7.91-6,6.68-13.46,11.55-21.18,16a4.74,4.74,0,0,1-5.48-1c-6.42-6.83-12.87-13.64-18.66-21A1.75,1.75,0,0,1,110.05,295Z"/><path class="cls-63" d="M110.05,295c6.22,7.05,12.49,14.06,18.63,21.17,1.57,1.82,3.2,2.67,5.53,1.85.19,2.48-1.6,3.61-3.27,4.83-6.87-7.69-13.25-15.83-20.85-22.85a11.42,11.42,0,0,0-1.17-1.59c-8-7.8-7.16-6.83-.14-17.85C109.31,285.48,102.38,291,110.05,295Z"/><path class="cls-64" d="M155,302.81c-2.43-3.25-6.19-5-8.95-7.86-3.26-12.45,1.44-23.27,7-33.91l2-.05a2.1,2.1,0,0,1,.6,1.34c-2.1,6.26-5.52,12.05-6.69,18.64-1.48,7.26.14,11.14,6.23,15.09,1.61,1,3.74,1.51,4.33,3.76C158.89,302.14,157.56,303.37,155,302.81Z"/><path class="cls-32" d="M155,302.81a10,10,0,0,0,4.25-3.14c3.94-1.91,7.73-.88,11.49.58.06.49.34,1.11.14,1.46-3.14,5.62-.33,7.63,4.9,8.22,1,2.43-1.17,3.14-2.43,4.18-6.38,5.23-12.95,10.21-19.48,15.24-2,1.78-4.34,3.07-6.2,5a11.2,11.2,0,0,1-1.58,1.26c-1.37.74-2.57,2-4.34,1.6-3.48-2.48-7.08-4.74-11.38-5.58a2.07,2.07,0,0,1-1.18-1.62c.19-2.49,6.89-3.43,1.72-7.21-.41-2.62,2.38-3.08,3.27-4.83Z"/><path class="cls-65" d="M129.22,330l.88.7c2.42,2.41,0,3.34-1.42,4.53-5.83,4.87-11.56,9.76-15.49,16.51-2.13,3.67-1.43,6.14,1.59,8.56a23.41,23.41,0,0,0,8.81,4.39c1.66.44,3.82.54,3.48,3.22-7.72,4-13.37.08-18.75-4.89l-4.94-7.52A345.41,345.41,0,0,1,129.22,330Z"/><path class="cls-66" d="M144,386.91c-16.48,0-33-.14-49.43.1-4.32.07-5.83-1-5.67-5.51.15-4.68-.18-8.73,6.49-7.74,1.52.22,3.76-.15,4.73-1.16,5.9-6.09,11.76-4.19,18.43-1.22,5.22,2.33,10.64,0,14.85-3.48,6-5,12.44-6.68,20.34-6.18a203.86,203.86,0,0,0,39.72-1.4c2.39-.31,4.14,0,4.79,3.35,1.37,7,.5,13.92.66,20.87.08,3.2-2.69,2.33-4.48,2.34C177.63,386.94,160.82,386.91,144,386.91Z"/><path class="cls-67" d="M145.84,334.6l.94-.87a36.39,36.39,0,0,0,6.69-4.42c5.77-4.23,11.57-8.41,17.14-12.88a9.94,9.94,0,0,1,9.79-2c5.4,1.67,10.86,3.22,15.74,6.21,3.31,2,5.7,4.38,4.51,8.93-.79,3,.32,6.27-.55,9.37A38.56,38.56,0,0,1,196,353c-6.43,3-13.39,1.82-20.11,2.39a116,116,0,0,1-26.79-.34c-2-2.75-3.44-5.89-6.55-7.79-1.64-1-2.53-2.76-.48-4.44C144.68,340.68,143.08,336.65,145.84,334.6Z"/><path class="cls-68" d="M127.07,367.92c-.73-1.58-2.06-1.91-3.67-2-3.25-.28-6-2-8.53-3.81-6.15-4.44-6.08-7.94.28-15.66a66,66,0,0,1,13.16-12.31c1.13-.79,2.85-1.4,1.79-3.39,4.78.6,9,2.24,12,6.26,2.19,3.87-.52,5.26-3.36,6.68,1.55,1.85,3.79,3,5.48,4.72,2.11,2.16,2.86,4.5-.32,6.52-4.21,3.37-7.36,7.92-12,10.8C130.35,366.63,129,367.78,127.07,367.92Z"/><path class="cls-69" d="M143.93,354.89c2.24-3.39.17-5.52-2.24-7.48-1.63-1.32-3.39-2.49-5.63-4.14,3.72-.89,7-1.82,6.07-6.3l3.71-2.37c-2,3.13,1.48,8.37-4.37,9.95,3,3.5,8.38,4.83,7.63,10.5C147.34,356.19,145.64,355.21,143.93,354.89Z"/><path class="cls-70" d="M200.1,338.93c0-1.49,0-3,0-4.48,0-10.7-1-12.15-11-15.94-2.32-.88-4.71-1.54-7-2.43-4.64-1.8-8.37-.7-12.29,2.4-5.27,4.18-10.42,8.66-16.66,11.47-.33-.18-.45-.38-.35-.58s.2-.31.3-.31c6.58-5.32,13.14-10.67,19.76-15.93,1.18-.94,2.45-1.71,3-3.2,8.34,2.33,16.67,4.69,25,7,1.6.43,3.19.76,4.35,2.06-.7,3.4,1.76,6.52.88,9.93v10.84l-1.08,0c0-2.8,0-5.6,0-8.4,0-1.35-.2-2.89-1.93-2.93s-1.82,1.51-2,2.85C200.67,333.81,201.94,336.57,200.1,338.93Z"/><path class="cls-71" d="M155.16,262.27c0-.43-.09-.85-.13-1.28a6.44,6.44,0,0,1,2.48,0c4.6,2,8,1.39,11.39-2.92,1.71-2.13,5.68-.22,8.06,1.55,2,1.52,3.41,2.92,4.3-.87.72-3.07,2.74-3.08,5.4-2.1,6.07,2.24,12.23,4.22,18.35,6.3-3.6,2-6.39-1.56-9.73-1.47-.59,0-1.19-.53-1.8-.78-9.66-4-9.66-4-12.46,6.23-1.07.54-1.88-.05-2.7-.59-1.43-1.15-2.56-2.64-4.13-3.61-2.65-1.66-5.06-2.22-6,1.81-.78,3.34-2.68,3.6-5,1.7S157.55,264.15,155.16,262.27Z"/><path class="cls-72" d="M131.05,157.16c3-6.11,9.3-7.74,14.57-3.59C140,151.73,135.44,154.14,131.05,157.16Z"/><path class="cls-73" d="M158.49,153.71c4.82-4.46,11.48-2.84,14.75,4C168.22,154.54,164,151.58,158.49,153.71Z"/><path class="cls-74" d="M152.64,178.86c5.74-5.61-1.09-10.19-.82-15.42C157.27,169.66,157.82,177.08,152.64,178.86Z"/><path class="cls-75" d="M158.75,188.29c-3.29-.19-6.18-1-9.31,1.14C152.12,185.14,154.53,184.91,158.75,188.29Z"/><path class="cls-76" d="M165.51,158.87a2.21,2.21,0,0,1,1.67,2.54c0,1.34-.12,2.83-1.81,2.85-1,0-1.42-1.19-1.48-2.22C163.82,160.7,163.9,159.41,165.51,158.87Z"/><path class="cls-77" d="M139.27,164.09c-1.49,0-1.51-1.11-1.54-2s-.37-2.55,1-2.92c1.72-.48,1.65,1.15,1.79,2.17S140.55,163.58,139.27,164.09Z"/><path class="cls-78" d="M185,160.05c3.54-1,3.54-1,7.39-.07L185,162.05Z"/><path class="cls-79" d="M111.81,160.28c2.44-1.84,4-1.3,5.92-.24C115.75,161.5,114.19,161,111.81,160.28Z"/><path class="cls-80" d="M324.78,125.19c5,1.33,10,2.29,14.84,4.05,30.26,11.1,47.79,40.07,44.14,72.61-3.3,29.41-27.7,53.85-58.1,58.22a24.08,24.08,0,0,0-2.86.75,22.67,22.67,0,0,1-11.68,0c-12.65-1.88-24.54-5.65-35-13.44C254.32,231.09,243.66,203,250.63,177c7.54-28.15,26.06-45.2,54.75-51,1-.19,1.9-.53,2.85-.81A43.87,43.87,0,0,1,324.78,125.19Z"/><path class="cls-81" d="M324.78,125.19l-16.55,0c-.4-.3-1.41-1-1-1,6.11-.2,12.23-.14,18.35-.12.07,0,.22.3.2.31C325.49,124.68,325.13,124.93,324.78,125.19Z"/><path class="cls-82" d="M311.12,260.85l11.68,0,.45.2c.44.2.82.84.3.85-4.79.12-9.59.07-14.56.07-.39.24-.2-.91.29-.68S310.5,261,311.12,260.85Z"/><path class="cls-83" d="M179.15,265.77,181,267c-1.35,5-2.69,10-4.06,15-1.41,5.17-2.8,10.34-4.33,15.46a11.62,11.62,0,0,1-1.86,2.83c-3.88.81-7.65-.64-11.49-.58-1.44-.77-2.88-1.55-4.33-2.3-7-3.64-9.16-8.79-7.06-16.64,1.48,4.64,3.67,8.5,8.4,10.87,6.36,3.18,11,2.15,14.79-4,3-4.91,4.24-10.45,5.76-15.89C177.41,269.63,177.3,267.31,179.15,265.77Z"/><path class="cls-68" d="M179.15,265.77A62.81,62.81,0,0,1,171.88,289c-3.35,5.93-9.23,7.55-15.24,4.22-4.91-2.71-10.17-5.28-8.75-12.48a48.19,48.19,0,0,1,7.27-18.46c4.51-.56,7.66,2.46,11.32,4.71,1.28-2.58-.62-6.67,3.47-7.05C174.31,259.53,176.77,262.73,179.15,265.77Z"/><path class="cls-69" d="M153.05,329.06c0,.3,0,.59,0,.89-1.7,1.92-3.49,3.71-6.31,3.78A20.13,20.13,0,0,1,153.05,329.06Z"/><path class="cls-84" d="M291,161.56c1.58,1.41,2.47,2.15,3.28,3,6.36,6.35,12.81,12.61,19,19.12,2.33,2.44,3.78,2.76,6.28.11,6.28-6.65,13-12.85,19.28-19.54,2.51-2.67,3.71-1.33,5.4.51s4,2.93.9,5.84c-6.8,6.36-13.14,13.21-19.89,19.64-2.31,2.2-2.08,3.41.09,5.48,6.26,6,12.26,12.21,18.43,18.29,2.17,2.14,4.32,3.49.88,7-3.59,3.63-5.06,1.36-7.29-.91-5.84-5.93-11.89-11.66-17.56-17.73-2.44-2.6-3.82-3.11-6.51-.18-6,6.48-12.51,12.44-18.57,18.84-2.36,2.5-3.76,2.65-6.19.06-2.18-2.32-3-3.63-.25-6.24,6.68-6.25,12.93-12.95,19.52-19.3,2.05-2,2.05-3.14,0-5.12-6.7-6.46-13.24-13.11-19.77-19.76-.91-.92-2.92-1.69-1.5-3.59S289.48,163.43,291,161.56Z"/></svg>