<svg id="Layer_1" data-name="Layer 1" xmlns="http://www.w3.org/2000/svg" viewBox="0 0 1063 238"><defs><style>.cls-1{fill:#fff;}</style></defs><path d="M86,205.12a40,40,0,0,1-21.45-5.9,44.82,44.82,0,0,1-15.5-15.87A43.32,43.32,0,0,1,43.2,161V91.41a41.86,41.86,0,0,1,5.9-21.88A44.57,44.57,0,0,1,64.66,53.6a40.18,40.18,0,0,1,21.34-6,42.09,42.09,0,0,1,21.89,5.79,44,44,0,0,1,15.5,15.77,43.41,43.41,0,0,1,5.74,22.2V101.5c0,.57-.36.85-1.08.85h-16.3a9.22,9.22,0,0,1-9.23-9.22h0q0-8.37-4.72-13.84A14.93,14.93,0,0,0,86,73.82q-6.33,0-11.26,5.26a17.41,17.41,0,0,0-4.93,12.33V161a17.63,17.63,0,0,0,4.82,12.39A15,15,0,0,0,86,178.63a15.4,15.4,0,0,0,11.8-5.1,17.7,17.7,0,0,0,4.72-12.5v-1.61a9.22,9.22,0,0,0-9.22-9.22H87.18c-.78,0-1.18-.36-1.18-1.07V124.56c0-.71.4-1.07,1.18-1.07h41.09c.57,0,.86.36.86,1.07V161a43.58,43.58,0,0,1-5.8,22.32,45.21,45.21,0,0,1-15.55,15.87A41,41,0,0,1,86,205.12Z"/><path d="M202.05,203H145.43c-.57,0-.86-.36-.86-1.08L144.79,51a.76.76,0,0,1,.86-.86h70.58c.57,0,.86.36.86,1.08V61.35a15.26,15.26,0,0,1-15.26,15.26h-15.4a15.26,15.26,0,0,0-15.25,15.26v3.81a15.26,15.26,0,0,0,15.25,15.26h29.8a.76.76,0,0,1,.86.85l.22,24.89a.76.76,0,0,1-.86.86h-30a15.26,15.26,0,0,0-15.25,15.26v7.89a15.25,15.25,0,0,0,15.25,15.25h30c.57,0,.86.36.86,1.08v10.7A15.26,15.26,0,0,1,202.05,203Z"/><path d="M283.71,203H258.93c-.65,0-1-.36-1-1.08v-110a15.26,15.26,0,0,0-15.25-15.26H229.43a1,1,0,0,1-1.08-1.07L228.57,51a.76.76,0,0,1,.86-.86h83.46c.78,0,1.18.29,1.18.86V75.54c0,.71-.29,1.07-.86,1.07H299.63a15.25,15.25,0,0,0-15.25,15.28l.19,110C284.57,202.62,284.28,203,283.71,203Z"/><path d="M362,205.12a40.67,40.67,0,0,1-21.57-6,45.22,45.22,0,0,1-15.6-16A43,43,0,0,1,319,161V151c0-.79.36-1.18,1.07-1.18h24.67c.58,0,.86.39.86,1.18V161a17.59,17.59,0,0,0,4.83,12.39,15.51,15.51,0,0,0,23.28-.1A17.72,17.72,0,0,0,378.54,161q0-8-10.52-14.05c-1.14-.71-2.63-1.59-4.45-2.63s-4-2.23-6.49-3.59-4.93-2.7-7.29-4-4.65-2.6-6.87-3.81q-12-7.08-17.86-17.76a49,49,0,0,1-5.85-24,41.72,41.72,0,0,1,6-22.1,45.28,45.28,0,0,1,15.72-15.5A40.75,40.75,0,0,1,362,47.86a41.28,41.28,0,0,1,21.45,5.79,45.26,45.26,0,0,1,15.61,15.66,41.77,41.77,0,0,1,5.84,21.89v3.62a15.26,15.26,0,0,1-15.25,15.26H379.39a.76.76,0,0,1-.85-.86l-.22-18q0-7.73-4.83-12.55A15.65,15.65,0,0,0,362,73.82q-7.65,0-12.82,6.58a18,18,0,0,0-3.59,11.51,21.61,21.61,0,0,0,3.05,11.3q3.06,4.83,11.21,9.23c.57.28,1.9,1,4,2.14s4.38,2.42,6.92,3.81,4.84,2.65,6.92,3.76,3.32,1.77,3.75,2a52.19,52.19,0,0,1,17.33,15q6.38,8.91,6.38,21.88a43.37,43.37,0,0,1-21.46,38.3A41.65,41.65,0,0,1,362,205.12Z"/><path d="M446.33,203H421.44a1,1,0,0,1-1.07-1.08L420.59,51a.76.76,0,0,1,.85-.86h24.68A.76.76,0,0,1,447,51l.21,150.93C447.19,202.62,446.9,203,446.33,203Z"/><path d="M506.73,205.12a40,40,0,0,1-21.46-5.9,44.9,44.9,0,0,1-15.5-15.87A43.32,43.32,0,0,1,463.92,161V91.41a41.86,41.86,0,0,1,5.9-21.88A44.65,44.65,0,0,1,485.38,53.6a40.22,40.22,0,0,1,21.35-6,42.08,42.08,0,0,1,21.88,5.79,44,44,0,0,1,15.5,15.77,43.31,43.31,0,0,1,5.74,22.2V101.5c0,.57-.36.85-1.07.85H532.47a9.22,9.22,0,0,1-9.22-9.22h0q0-8.37-4.72-13.84a14.94,14.94,0,0,0-11.8-5.47q-6.33,0-11.27,5.26a17.41,17.41,0,0,0-4.93,12.33V161a17.59,17.59,0,0,0,4.83,12.39,15,15,0,0,0,11.37,5.21,15.41,15.41,0,0,0,11.8-5.1,17.74,17.74,0,0,0,4.72-12.5h0a10.83,10.83,0,0,0-10.84-10.83h-4.5c-.79,0-1.18-.36-1.18-1.07V124.56c0-.71.39-1.07,1.18-1.07H549c.57,0,.86.36.86,1.07V161a43.67,43.67,0,0,1-5.79,22.32,45.32,45.32,0,0,1-15.56,15.87A40.92,40.92,0,0,1,506.73,205.12Z"/><path d="M591,203H566.15c-.57,0-.85-.36-.85-1.08L565.51,51c0-.57.36-.86,1.07-.86H591c.72,0,1.07.29,1.07.86L592,95.41a15.24,15.24,0,0,0,15.25,15.31h2.37a15.25,15.25,0,0,0,15.25-15.25V51a.87.87,0,0,1,.86-.86h24.46c.71,0,1.07.29,1.07.86l.43,150.93a1,1,0,0,1-1.07,1.08H625.91a1.08,1.08,0,0,1-1.08-1.08V152.58a15.25,15.25,0,0,0-15.25-15.25h-2.42a15.26,15.26,0,0,0-15.26,15.25V201.9C591.9,202.62,591.61,203,591,203Z"/><path d="M716.44,203H691.66q-1,0-1-1.08v-110a15.27,15.27,0,0,0-15.27-15.27H662.16a1,1,0,0,1-1.07-1.07L661.31,51a.76.76,0,0,1,.85-.86h83.46c.79,0,1.18.29,1.18.86V75.54c0,.71-.28,1.07-.86,1.07H732.38a15.27,15.27,0,0,0-15.27,15.3l.19,110C717.3,202.62,717,203,716.44,203Z"/><rect x="787.1" y="51.98" width="231.9" height="152.56" rx="10"/><polygon class="cls-1" points="903.05 195.39 802.36 128.26 903.05 61.13 1003.74 128.26 903.05 195.39"/><circle cx="903.05" cy="128.26" r="45.77"/><path class="cls-1" d="M930.51,103c-21.36,34.42-54,26.54-54,26.54,5.34,19,38.26,22.48,41.85,20.08C927.46,143.52,927.46,115.49,930.51,103Z"/></svg>