<svg id="Layer_1" data-name="Layer 1" xmlns="http://www.w3.org/2000/svg" viewBox="0 0 975.8 154.39"><defs><style>.cls-1{fill:#fff;}</style></defs><path d="M42.8,155a40.75,40.75,0,0,1-21.45-5.76A44.36,44.36,0,0,1,5.85,133.7,41.72,41.72,0,0,1,0,111.86v-68A40.22,40.22,0,0,1,5.9,22.49,44.12,44.12,0,0,1,21.46,6.92,40.9,40.9,0,0,1,42.8,1.06,42.83,42.83,0,0,1,64.69,6.72a43.35,43.35,0,0,1,15.5,15.41,41.52,41.52,0,0,1,5.74,21.69v9.91c0,.55-.36.83-1.08.83H68.55a9.13,9.13,0,0,1-9.23-9h0q0-8.19-4.72-13.53a15,15,0,0,0-11.8-5.34,15.21,15.21,0,0,0-11.26,5.14,16.83,16.83,0,0,0-4.93,12v68A17,17,0,0,0,31.43,124a15.19,15.19,0,0,0,11.37,5.12,15.57,15.57,0,0,0,11.8-5,17.08,17.08,0,0,0,4.72-12.22v-1.57a9.11,9.11,0,0,0-9.22-9H44c-.78,0-1.18-.35-1.18-1v-24c0-.7.4-1.05,1.18-1.05H85.07c.57,0,.86.35.86,1.05v35.6a41.71,41.71,0,0,1-5.8,21.81,44.58,44.58,0,0,1-15.55,15.51A41.73,41.73,0,0,1,42.8,155Z"/><path d="M158.85,155H102.23c-.57,0-.86-.37-.86-1.09l.22-152a.77.77,0,0,1,.65-.87.74.74,0,0,1,.21,0H173c.57,0,.86.37.86,1.09v10.2a15.31,15.31,0,0,1-15.26,15.37h-15.4A15.31,15.31,0,0,0,128,43.08v3.84a15.31,15.31,0,0,0,15.25,15.36H173a.76.76,0,0,1,.86.65.74.74,0,0,1,0,.21l.22,25.06a.76.76,0,0,1-.64.87.81.81,0,0,1-.22,0h-30A15.31,15.31,0,0,0,128,104.43v7.94a15.3,15.3,0,0,0,15.25,15.36h30c.57,0,.86.36.86,1.09v10.77A15.31,15.31,0,0,1,158.87,155Z"/><path d="M240.51,155H215.73c-.65,0-1-.37-1-1.1V42.35a15.36,15.36,0,0,0-15.25-15.47H186.23a1,1,0,0,1-1.08-.93v-.16L185.37.86A.77.77,0,0,1,186,0h83.67c.78,0,1.18.29,1.18.87V25.74c0,.72-.29,1.09-.86,1.09H256.43a15.36,15.36,0,0,0-15.25,15.46v0l.19,111.53C241.37,154.59,241.08,155,240.51,155Z"/><path d="M318.8,155a41.1,41.1,0,0,1-21.57-5.91,45,45,0,0,1-15.6-15.77,41.91,41.91,0,0,1-5.83-21.79v-9.86c0-.78.36-1.16,1.07-1.16h24.67c.58,0,.86.38.86,1.16v9.86a17.22,17.22,0,0,0,4.83,12.21,15.67,15.67,0,0,0,21.9,1.27,16.22,16.22,0,0,0,1.38-1.37,17.28,17.28,0,0,0,4.83-12.11q0-7.89-10.52-13.85c-1.14-.7-2.63-1.57-4.45-2.59s-4-2.2-6.49-3.54l-7.29-3.94c-2.36-1.28-4.65-2.56-6.87-3.76q-12-7-17.86-17.5A47.81,47.81,0,0,1,276,42.67a40.7,40.7,0,0,1,6-21.78A45.07,45.07,0,0,1,297.73,5.62,41.19,41.19,0,0,1,318.8,0a41.75,41.75,0,0,1,21.45,5.71,44.78,44.78,0,0,1,15.61,15.43,40.64,40.64,0,0,1,5.84,21.57v3.57a15.15,15.15,0,0,1-15.25,15H336.19a.77.77,0,0,1-.85-.65.67.67,0,0,1,0-.2l-.22-17.74a16.59,16.59,0,0,0-4.83-12.37,15.78,15.78,0,0,0-11.49-4.78q-7.65,0-12.82,6.49a17.6,17.6,0,0,0-3.59,11.34,21.16,21.16,0,0,0,3.05,11.14q3.06,4.76,11.21,9.09c.57.28,1.9,1,4,2.11s4.38,2.39,6.92,3.76,4.84,2.61,6.92,3.7l3.75,2A51.91,51.91,0,0,1,355.57,90Q362,98.75,362,111.53a42.59,42.59,0,0,1-21.46,37.74A42.12,42.12,0,0,1,318.8,155Z"/><path d="M403.13,155H378.24a1,1,0,0,1-1.07-.93v-.16l.22-153A.76.76,0,0,1,378,0h24.88a.76.76,0,0,1,.88.63.7.7,0,0,1,0,.25l.21,153C404,154.59,403.7,155,403.13,155Z"/><path d="M463.53,155a40.49,40.49,0,0,1-21.46-5.8,44.64,44.64,0,0,1-15.5-15.61,42.28,42.28,0,0,1-5.85-22V43.1a40.68,40.68,0,0,1,5.9-21.52A44.32,44.32,0,0,1,442.18,5.91,40.73,40.73,0,0,1,463.53,0a42.6,42.6,0,0,1,21.88,5.7,43.63,43.63,0,0,1,15.5,15.51,42,42,0,0,1,5.74,21.85V53c0,.56-.36.84-1.07.84H489.27a9.15,9.15,0,0,1-9.22-9.07h0q0-8.23-4.72-13.62a15,15,0,0,0-11.8-5.38A15.2,15.2,0,0,0,452.26,31a17,17,0,0,0-4.93,12.13v68.47a17.17,17.17,0,0,0,4.83,12.19,15.14,15.14,0,0,0,11.37,5.12,15.52,15.52,0,0,0,11.8-5,17.25,17.25,0,0,0,4.72-12.3h0a10.74,10.74,0,0,0-10.83-10.66h-4.51c-.79,0-1.18-.35-1.18-1V75.72c0-.7.39-1,1.18-1H505.8c.57,0,.86.35.86,1v35.85a42.33,42.33,0,0,1-5.79,22,44.81,44.81,0,0,1-15.56,15.61A41.39,41.39,0,0,1,463.53,155Z"/><path d="M547.8,154.38H523c-.57,0-.85-.36-.85-1.09L522.31.86c0-.57.36-.87,1.07-.87H547.8c.72,0,1.07.3,1.07.87l-.07,44.86A15.33,15.33,0,0,0,564,61.18h2.45a15.32,15.32,0,0,0,15.25-15.4V.86a.88.88,0,0,1,.86-.87H607c.71,0,1.07.3,1.07.87l.43,152.44a1,1,0,0,1-.91,1.09H582.71a1.09,1.09,0,0,1-1.08-1.09h0V103.46a15.33,15.33,0,0,0-15.25-15.41H564a15.35,15.35,0,0,0-15.26,15.41v49.81C548.7,154,548.41,154.38,547.8,154.38Z"/><path d="M673.24,155H648.46c-.66,0-1-.37-1-1.1V42.35a15.37,15.37,0,0,0-15.27-15.48H619a1,1,0,0,1-1.07-.94v-.14L618.11.87a.76.76,0,0,1,.65-.87.69.69,0,0,1,.2,0h83.46c.79,0,1.18.3,1.18.88V25.75c0,.72-.28,1.08-.86,1.08H689.18a15.38,15.38,0,0,0-15.27,15.48v0l.19,111.53C674.1,154.59,673.8,155,673.24,155Z"/><path d="M753.9,0H965.8a10.06,10.06,0,0,1,10,10.12V144.27a10.06,10.06,0,0,1-10,10.12H753.9a10.06,10.06,0,0,1-10-10.12V10.11A10.06,10.06,0,0,1,753.9,0Z"/><polygon class="cls-1" points="859.85 145.24 759.16 78.11 859.85 10.98 960.54 78.11 859.85 145.24"/><circle cx="859.85" cy="78.11" r="45.77"/><path class="cls-1" d="M887.31,52.85c-21.36,34.42-54,26.54-54,26.54,5.34,19,38.26,22.48,41.85,20.08C884.26,93.37,884.26,65.34,887.31,52.85Z"/></svg>